<svg version="1" xmlns="http://www.w3.org/2000/svg" width="682.667" height="682.667" viewBox="0 0 512.000000 512.000000"><path d="M237.6 25.6c-35.6 6.4-62.2 26.5-78.5 59-9.4 18.9-31.8 72.2-55.2 131.8-15.7 39.8-61.9 155.4-73 182.5-9 21.9-11.9 31.3-11.9 38.4 0 10.4 5.3 24.2 12.6 32.6 11 12.7 31.4 20 47.1 16.7 13.5-2.8 25.2-10.7 32.8-22.1 6-9 22.4-51.4 59.5-153.5 21.7-59.9 42.9-115.8 50.1-132.4 5-11.5 7.7-15.9 15.1-25.2 4.6-5.7 7.4-8.3 11.2-10 9.5-4.4 15.7-2.4 25.7 8.4 12.1 13.1 15.2 20.4 42 99.9 8.7 25.9 20.6 59 26.5 73.5 37.1 91.8 53.6 132.2 55.9 136.8 3.1 6.1 10.4 14.1 16.5 18 21.2 13.6 54.4 6.8 68.2-14.1 7.7-11.8 10.5-26.3 7.4-39.3-1.4-5.7-40.1-103.3-63.7-160.2-3.3-8.2-16.2-40.1-28.6-70.9-41.2-102.6-51.7-123.8-70-142.1-10.9-11-24.4-19.4-39-24.3-14.4-4.9-35.2-6.3-50.7-3.5z"/><path d="M244 316.5c-30.1 7.4-48.2 36.4-42.6 68.3 3.5 20 18.4 37.5 36.9 43.3 15.1 4.7 31.2 3.6 45.6-3.2 8.5-3.9 20.3-15.7 24.9-25 7.8-15.5 7.9-36.9 0-53.1-6.9-14.3-21.4-26.4-36.3-30.3-7.2-1.8-21-1.8-28.5 0z"/></svg>