<svg width="677" height="850" viewBox="0 0 677 850" fill="none" xmlns="http://www.w3.org/2000/svg">
<g clip-path="url(#clip0_1139_2132)">
<path fill-rule="evenodd" clip-rule="evenodd" d="M325.702 -553.271C392.569 -582.989 470.492 -548.619 493.631 -479.201L556.669 -290.087C597.58 -254.558 621.183 -202.969 621.183 -148.604V319.958C621.183 362.072 587.043 396.211 544.93 396.211C543.683 396.211 542.443 396.181 541.21 396.122V597.944C541.21 628.59 563.186 654.825 593.358 660.198L621.198 665.156C653.471 670.903 676.978 698.966 676.978 731.747C676.978 739.747 675.562 747.527 672.924 754.772C673.146 756.133 673.259 757.501 673.259 758.877C673.259 809.208 522.545 850.008 336.629 850.008C150.714 850.008 0 809.208 0 758.877C0 716.331 107.691 680.596 253.302 670.558L256.529 236.624C218.574 199.64 195.643 147.405 197.561 90.076L207.689 -212.652C208.265 -229.871 214.796 -246.357 226.169 -259.298L259.079 -296.747C260.716 -298.611 261.54 -301.052 261.367 -303.526L252.398 -431.328C248.747 -483.349 278.048 -532.091 325.702 -553.271ZM371.966 379.583V711.807C366.398 712.829 360.171 713.299 353.393 713.226C340.263 713.084 326.601 710.924 314.553 708.193C305.38 706.113 297.743 697.028 297.839 684.116L300.248 360.024C315.67 367.265 350.745 378.487 371.966 379.583ZM468.677 390.631C468.677 409.023 480.285 424.704 496.574 430.748V597.944C496.574 650.223 534.062 694.977 585.532 704.143L613.372 709.101C624.348 711.055 632.342 720.599 632.342 731.747C632.342 742.706 624.894 751.249 615.244 752.856C568.621 760.621 487.757 770.644 425.314 761.191C421.186 760.566 416.601 756.444 416.601 749.164V271.126C416.601 258.036 405.99 247.425 392.901 247.425C307.632 247.425 239.32 176.789 242.172 91.5686L252.3 -211.16C252.531 -218.053 255.145 -224.652 259.698 -229.833L292.608 -267.282C302.118 -278.104 306.901 -292.28 305.893 -306.651L296.924 -434.453C294.588 -467.74 313.338 -498.93 343.831 -512.482C386.618 -531.499 436.479 -509.506 451.286 -465.086L515.979 -271.006C517.534 -266.34 520.38 -262.211 524.187 -259.096C557.327 -231.981 576.547 -191.423 576.547 -148.604V319.958C576.547 337.42 562.391 351.575 544.93 351.575C527.468 351.575 513.313 337.42 513.313 319.958V-113.382H468.677V319.958V320.27V390.631Z" fill="black"/>
<path fill-rule="evenodd" clip-rule="evenodd" d="M371.656 379.598V711.822C366.089 712.844 359.862 713.315 353.083 713.241C339.954 713.099 326.292 710.94 314.243 708.208C305.071 706.129 297.435 697.043 297.531 684.132L299.939 360.039C315.361 367.28 350.436 378.502 371.656 379.598ZM468.369 390.646C468.369 409.038 479.976 424.719 496.265 430.763V597.959C496.265 650.238 533.753 694.992 585.223 704.158L613.064 709.116C624.04 711.071 632.033 720.614 632.033 731.762C632.033 742.721 624.585 751.264 614.935 752.871C568.312 760.637 487.447 770.66 425.005 761.206C420.877 760.581 416.292 756.46 416.292 749.179V271.141C416.292 258.051 405.682 247.44 392.593 247.44C307.324 247.44 239.012 176.805 241.864 91.5838L251.991 -211.144C252.222 -218.037 254.836 -224.637 259.389 -229.818L292.299 -267.267C301.808 -278.088 306.592 -292.265 305.584 -306.635L296.615 -434.438C294.279 -467.725 313.029 -498.914 343.523 -512.467C386.309 -531.483 436.171 -509.49 450.978 -465.071L515.671 -270.991C517.226 -266.325 520.072 -262.195 523.879 -259.081C557.019 -231.966 576.238 -191.408 576.238 -148.588V319.974C576.238 337.435 562.082 351.591 544.621 351.591C527.159 351.591 513.004 337.435 513.004 319.974V-113.367H468.369V319.974V320.286V390.646Z" fill="#F2FE67"/>
</g>
<defs>
<clipPath id="clip0_1139_2132">
<rect width="677" height="850" fill="white"/>
</clipPath>
</defs>
</svg>