<svg width="32" height="32" viewBox="0 0 32 32" fill="none" xmlns="http://www.w3.org/2000/svg">
<path d="M15.2785 30.6124L12.5801 31.7028C10.5238 32.5338 8.1812 31.5634 7.31464 29.5217L6.17766 26.8426C5.98274 26.3833 5.61678 26.0173 5.15736 25.8223L2.4783 24.6854C0.436555 23.8188 -0.533846 21.4762 0.297173 19.4199L1.38762 16.7215C1.57478 16.2588 1.57478 15.7412 1.38762 15.2785L0.297173 12.5801C-0.533846 10.5238 0.436571 8.1812 2.4783 7.31464L5.15736 6.17766C5.61674 5.98274 5.98272 5.61678 6.17766 5.15736L7.31464 2.4783C8.1812 0.436555 10.5238 -0.533846 12.5801 0.297173L15.2785 1.38762C15.7412 1.57478 16.2588 1.57478 16.7215 1.38762L19.4199 0.297173C21.4762 -0.533846 23.8188 0.436571 24.6854 2.4783L25.8223 5.15736C26.0173 5.61674 26.3832 5.98272 26.8426 6.17766L29.5217 7.31464C31.5634 8.1812 32.5338 10.5238 31.7028 12.5801L30.6124 15.2785C30.4252 15.7412 30.4252 16.2588 30.6124 16.7215L31.7028 19.4199C32.5338 21.4762 31.5634 23.8188 29.5217 24.6854L26.8426 25.8223C26.3833 26.0173 26.0173 26.3832 25.8223 26.8426L24.6854 29.5217C23.8188 31.5634 21.4762 32.5338 19.4199 31.7028L16.7215 30.6124C16.2588 30.4252 15.7412 30.4252 15.2785 30.6124V30.6124ZM17.5232 28.6286L20.2216 29.719C21.1956 30.1127 22.3055 29.653 22.7156 28.6859L23.8526 26.0068C24.2642 25.0367 25.0367 24.2642 26.0068 23.8526L28.6859 22.7156C29.653 22.3055 30.1127 21.1956 29.719 20.2216L28.6286 17.5232C28.2336 16.5463 28.2336 15.4537 28.6286 14.4768L29.719 11.7784C30.1127 10.8044 29.653 9.69453 28.6859 9.28441L26.0068 8.14742C25.0367 7.73579 24.2642 6.96329 23.8526 5.99319L22.7156 3.31414C22.3055 2.34702 21.1956 1.88731 20.2216 2.281L17.5232 3.37145C16.5463 3.76636 15.4537 3.76636 14.4768 3.37145L11.7784 2.281C10.8044 1.88728 9.69453 2.34697 9.28441 3.31414L8.14742 5.99319C7.73579 6.96329 6.96329 7.73585 5.99319 8.14742L3.31414 9.28441C2.34702 9.69455 1.8873 10.8044 2.281 11.7784L3.37145 14.4768C3.76636 15.4537 3.76636 16.5463 3.37145 17.5232L2.281 20.2216C1.88728 21.1956 2.34697 22.3055 3.31414 22.7156L5.99319 23.8526C6.96329 24.2642 7.73585 25.0367 8.14742 26.0068L9.28441 28.6859C9.69455 29.653 10.8044 30.1127 11.7784 29.719L14.4768 28.6286C15.4537 28.2336 16.5463 28.2336 17.5232 28.6286V28.6286ZM13.9445 18.6754L21.5094 11.1109C22.0106 10.6094 22.8233 10.6094 23.3249 11.1109C23.8263 11.6121 23.8263 12.4249 23.3249 12.9264L14.8519 21.3993C14.3507 21.9005 13.5376 21.9005 13.0364 21.3993L9.10277 17.4657C8.60129 16.9642 8.60129 16.1514 9.10277 15.6499C9.60395 15.1487 10.4167 15.1487 10.9182 15.6499L13.9445 18.6754Z"/>
</svg>
