<svg width="250" height="200" viewBox="0 0 250 200" fill="none" xmlns="http://www.w3.org/2000/svg">
<path d="M160.812 157.5C160.812 150.875 154.937 145 148.312 145H101.688C95.0625 145 89.1875 150.875 89.1875 157.5V187.5C89.1875 194.125 95.0625 200 101.688 200H148.312C154.937 200 160.812 194.125 160.812 187.5V157.5ZM71.625 157.5C71.625 150.875 65.75 145 59.125 145H12.5C5.875 145 0 150.875 0 157.5V187.5C0 194.125 5.875 200 12.5 200H59.125C65.75 200 71.625 194.125 71.625 187.5V157.5ZM250 157.5C250 150.875 244.125 145 237.5 145H190.875C184.25 145 178.375 150.875 178.375 157.5V187.5C178.375 194.125 184.25 200 190.875 200H237.5C244.125 200 250 194.125 250 187.5V157.5ZM107.938 163.75H142.062V181.25H107.938V163.75ZM18.75 163.75H52.875V181.25H18.75V163.75ZM197.125 163.75H231.25V181.25H197.125V163.75ZM160.812 85C160.812 78.375 154.937 72.5 148.312 72.5H101.688C95.0625 72.5 89.1875 78.375 89.1875 85V115C89.1875 121.625 95.0625 127.5 101.688 127.5H148.312C154.937 127.5 160.812 121.625 160.812 115V85ZM71.625 85C71.625 78.375 65.75 72.5 59.125 72.5H12.5C5.875 72.5 0 78.375 0 85V115C0 121.625 5.875 127.5 12.5 127.5H59.125C65.75 127.5 71.625 121.625 71.625 115V85ZM250 85C250 78.375 244.125 72.5 237.5 72.5H190.875C184.25 72.5 178.375 78.375 178.375 85V115C178.375 121.625 184.25 127.5 190.875 127.5H237.5C244.125 127.5 250 121.625 250 115V85ZM107.938 91.25H142.062V108.75H107.938V91.25ZM18.75 91.25H52.875V108.75H18.75V91.25ZM197.125 91.25H231.25V108.75H197.125V91.25ZM160.812 12.5C160.812 5.875 154.937 0 148.312 0H101.688C95.0625 0 89.1875 5.875 89.1875 12.5V42.5C89.1875 49.125 95.0625 55 101.688 55H148.312C154.937 55 160.812 49.125 160.812 42.5V12.5ZM71.625 12.5C71.625 5.875 65.75 0 59.125 0H12.5C5.875 0 0 5.875 0 12.5V42.5C0 49.125 5.875 55 12.5 55H59.125C65.75 55 71.625 49.125 71.625 42.5V12.5ZM250 12.5C250 5.875 244.125 0 237.5 0H190.875C184.25 0 178.375 5.875 178.375 12.5V42.5C178.375 49.125 184.25 55 190.875 55H237.5C244.125 55 250 49.125 250 42.5V12.5ZM107.938 18.75H142.062V36.25H107.938V18.75ZM18.75 18.75H52.875V36.25H18.75V18.75ZM197.125 18.75H231.25V36.25H197.125V18.75Z" fill="url(#paint0_linear_1201_22198)"/>
<defs>
<linearGradient id="paint0_linear_1201_22198" x1="0" y1="0" x2="296.259" y2="128.061" gradientUnits="userSpaceOnUse">
<stop stop-color="#FD9D5D"/>
<stop offset="0.473958" stop-color="#FD2CA0"/>
<stop offset="1" stop-color="#3397FF"/>
</linearGradient>
</defs>
</svg>
