<svg width="200" height="200" viewBox="0 0 200 200" fill="none" xmlns="http://www.w3.org/2000/svg">
<path d="M69.7909 170C66.3774 170 63.476 168.808 61.0865 166.423C58.6971 164.039 57.5024 161.144 57.5024 157.737C57.5024 154.331 58.6971 151.436 61.0865 149.051C63.476 146.667 66.3774 145.474 69.7909 145.474C73.2043 145.474 76.1058 146.667 78.4952 149.051C80.8846 151.436 82.0793 154.331 82.0793 157.737C82.0793 161.144 80.8846 164.039 78.4952 166.423C76.1058 168.808 73.2043 170 69.7909 170ZM138.743 170C135.329 170 132.428 168.808 130.038 166.423C127.649 164.039 126.454 161.144 126.454 157.737C126.454 154.331 127.649 151.436 130.038 149.051C132.428 146.667 135.329 145.474 138.743 145.474C142.156 145.474 145.058 146.667 147.447 149.051C149.837 151.436 151.031 154.331 151.031 157.737C151.031 161.144 149.837 164.039 147.447 166.423C145.058 168.808 142.156 170 138.743 170ZM46.0673 134.745L67.5721 96.4234L42.9952 43.9659H29V30H52.0409L80.0312 89.9513H129.356L154.957 44.3066H171L137.889 104.088H79.5192L70.1322 120.779H152.909V134.745H46.0673Z" fill="url(#paint0_linear_1160_22233)"/>
<path d="M105.858 42.4796C109.932 40.635 108.981 41.048 108.981 41.048C112.919 -4.87421 139.018 21.3081 128.535 34.0275C122.859 40.9103 114.576 44.985 114.576 44.985C114.521 47.0498 114.467 49.1422 114.44 51.207C114.196 57.8696 114.223 64.6148 113.136 71.1948C111.507 78.1877 110.203 68.3315 110.203 66.1565C109.715 59.8794 109.47 47.215 109.47 47.215L105.885 49.1697C105.885 49.1697 106.32 60.0996 104.039 65.2205C91.8991 88.8423 60.885 64.6698 100.508 45.3704C100.508 45.3704 101.133 31.9076 101.513 27.42C104.12 5.09212 106.021 37.5791 105.858 42.4796ZM91.9534 64.8075C97.7923 64.5047 99.4761 57.5668 99.7748 52.6937C99.7205 52.4184 100.074 51.5649 99.6662 51.62C97.222 52.8314 94.7778 54.0428 92.5237 55.557C88.5315 57.3465 85.68 64.367 91.9534 64.8075ZM114.793 37.6341C117.237 36.2851 119.6 34.2202 120.849 31.6048C122.397 29.2095 120.849 23.9786 117.509 26.2637C114.657 29.0994 115.092 33.8623 114.793 37.6341Z" fill="url(#paint1_linear_1160_22233)"/>
<defs>
<linearGradient id="paint0_linear_1160_22233" x1="29" y1="30" x2="206.838" y2="92.3768" gradientUnits="userSpaceOnUse">
<stop stop-color="#FD9D5D"/>
<stop offset="0.473958" stop-color="#FD2CA0"/>
<stop offset="1" stop-color="#3397FF"/>
</linearGradient>
<linearGradient id="paint1_linear_1160_22233" x1="81" y1="15" x2="145.931" y2="33.7114" gradientUnits="userSpaceOnUse">
<stop stop-color="#FD9D5D"/>
<stop offset="0.473958" stop-color="#FD2CA0"/>
<stop offset="1" stop-color="#3397FF"/>
</linearGradient>
</defs>
</svg>
