<svg width="200" height="200" viewBox="0 0 200 200" fill="none" xmlns="http://www.w3.org/2000/svg">
<path d="M117.708 131.667H132.708V107.083H157.083V92.0834H132.708V67.7084H117.708V92.0834H93.125V107.083H117.708V131.667ZM48.5417 170C33.9583 164.167 22.2222 154.896 13.3333 142.188C4.44444 129.479 0 115.347 0 99.7917C0 84.2362 4.47917 70.139 13.4375 57.5001C22.3958 44.8612 34.0972 35.6251 48.5417 29.7917V52.0834C39.7917 56.9445 32.8125 63.5765 27.6042 71.9792C22.3958 80.382 19.7917 89.6529 19.7917 99.7917C19.7917 109.931 22.3958 119.201 27.6042 127.604C32.8125 136.007 39.7917 142.708 48.5417 147.708V170ZM125 174.792C114.583 174.792 104.826 172.813 95.7292 168.854C86.6319 164.896 78.7153 159.549 71.9792 152.813C65.2431 146.076 59.8958 138.16 55.9375 129.063C51.9792 119.965 50 110.208 50 99.7917C50 89.3751 51.9792 79.6181 55.9375 70.5209C59.8958 61.4237 65.2431 53.507 71.9792 46.7709C78.7153 40.0348 86.6319 34.6876 95.7292 30.7292C104.826 26.7709 114.583 24.7917 125 24.7917C135.417 24.7917 145.174 26.7709 154.271 30.7292C163.368 34.6876 171.285 40.0348 178.021 46.7709C184.757 53.507 190.104 61.4237 194.062 70.5209C198.021 79.6181 200 89.3751 200 99.7917C200 110.208 198.021 119.965 194.062 129.063C190.104 138.16 184.757 146.076 178.021 152.813C171.285 159.549 163.368 164.896 154.271 168.854C145.174 172.813 135.417 174.792 125 174.792ZM125 155C140.278 155 153.333 149.618 164.167 138.854C175 128.09 180.417 115.07 180.417 99.7917C180.417 84.514 175 71.4584 164.167 60.6251C153.333 49.7917 140.208 44.3751 124.792 44.3751C109.653 44.3751 96.7014 49.7917 85.9375 60.6251C75.1736 71.4584 69.7917 84.514 69.7917 99.7917C69.7917 115.208 75.1736 128.264 85.9375 138.958C96.7014 149.653 109.722 155 125 155Z" fill="url(#paint0_linear_1160_22225)"/>
<defs>
<linearGradient id="paint0_linear_1160_22225" x1="0" y1="24.7917" x2="231.975" y2="131.751" gradientUnits="userSpaceOnUse">
<stop stop-color="#FD9D5D"/>
<stop offset="0.473958" stop-color="#FD2CA0"/>
<stop offset="1" stop-color="#3397FF"/>
</linearGradient>
</defs>
</svg>
