<svg width="200" height="200" viewBox="0 0 200 200" fill="none" xmlns="http://www.w3.org/2000/svg">
<g clip-path="url(#clip0_1014_22197)">
<path fill-rule="evenodd" clip-rule="evenodd" d="M0 183.333H100V200H0V183.333ZM91.6667 175H8.33333C8.33333 165.792 15.7917 158.333 25 158.333H75C84.2083 158.333 91.6667 165.792 91.6667 175ZM144.742 68.0083L126.025 86.3167C126.025 86.3167 178.45 132.492 194.125 145.85C198.083 149.225 200 153.592 200 157.9C200 166.358 192.6 173.617 183.75 173.058C179.417 172.792 175.575 170.533 172.742 167.25C159.25 151.625 113.825 98.5083 113.825 98.5083L95.1167 116.808L46.3083 68.0083L95.95 19.2L144.742 68.0083V68.0083ZM42.25 75.725C40.625 74.1167 38.4333 73.2083 36.1417 73.2083C33.8583 73.2083 31.6667 74.1167 30.0417 75.725C28.4333 77.35 27.5167 79.5417 27.5167 81.8333C27.5167 84.1167 28.4333 86.3083 30.0417 87.9333L75.9833 133.858C77.6 135.483 79.7917 136.392 82.0833 136.392C84.375 136.392 86.5667 135.483 88.1833 133.858C89.8 132.25 90.7083 130.05 90.7083 127.758C90.7083 125.475 89.8 123.283 88.1833 121.667L42.25 75.725V75.725ZM115.45 2.525C113.825 0.908333 111.633 0 109.35 0C104.55 0 100.725 3.89167 100.725 8.625C100.725 10.9167 101.625 13.1167 103.25 14.725L149.192 60.6667C150.808 62.275 152.992 63.1917 155.283 63.1917C160.05 63.1917 163.917 59.325 163.917 54.5667C163.917 52.275 163.008 50.075 161.383 48.4667L115.45 2.525V2.525Z" fill="url(#paint0_linear_1014_22197)"/>
</g>
<defs>
<linearGradient id="paint0_linear_1014_22197" x1="0" y1="0" x2="251.247" y2="86.8835" gradientUnits="userSpaceOnUse">
<stop stop-color="#FD9D5D"/>
<stop offset="0.473958" stop-color="#FD2CA0"/>
<stop offset="1" stop-color="#3397FF"/>
</linearGradient>
<clipPath id="clip0_1014_22197">
<rect width="200" height="200" fill="white"/>
</clipPath>
</defs>
</svg>
