<svg width="128" height="128" viewBox="0 0 128 128" fill="none" xmlns="http://www.w3.org/2000/svg">
<g clip-path="url(#clip0_866_1846)">
<path d="M117.5 80.3002C115.7 79.4002 114.5 77.6002 114.5 75.4002V25.0002C114.5 22.5002 112.5 20.5002 110 20.5002C109.7 20.5002 109.4 20.5002 109.1 20.6002V55.0002C109.1 56.0002 108.3 56.8002 107.3 56.8002C106.3 56.8002 105.5 56.0002 105.5 55.0002V17.7002C105.5 15.2002 103.5 13.2002 101 13.2002C98.5004 13.2002 96.5004 15.2002 96.5004 17.7002V20.9002C96.9004 21.2002 97.4004 21.5002 97.7004 21.9002C99.2004 23.4002 100.1 25.5002 100.1 27.7002V54.9002C100.1 55.9002 99.3004 56.7002 98.3004 56.7002C97.3004 56.7002 96.5004 55.9002 96.5004 54.9002V27.7002C96.5004 25.2002 94.5004 23.2002 92.0004 23.2002C89.5004 23.2002 87.5004 25.2002 87.5004 27.7002V66.7002C87.5004 67.7002 86.7004 68.5002 85.7004 68.5002C84.7004 68.5002 83.9004 67.7002 83.9004 66.7002V54.0002C83.9004 51.5002 81.9004 49.5002 79.4004 49.5002C76.9004 49.5002 74.9004 51.5002 74.9004 54.0002V78.5002C74.9004 84.8002 78.5004 90.3002 83.7004 93.0002L129.4 114.8V85.8002L117.5 80.3002Z" fill="url(#paint0_linear_866_1846)"/>
<path d="M35.4004 38.7002C39.8187 38.7002 43.4004 35.1185 43.4004 30.7002C43.4004 26.2819 39.8187 22.7002 35.4004 22.7002C30.9821 22.7002 27.4004 26.2819 27.4004 30.7002C27.4004 35.1185 30.9821 38.7002 35.4004 38.7002Z" fill="url(#paint1_linear_866_1846)"/>
<path d="M62.0997 64.7L48.5997 58.4L44.6997 48C43.1997 44.4 39.8997 41.6 35.7997 40.9L32.5997 40.4C29.1997 39.8 25.8997 40.7 23.3997 42.6L11.8997 50.6C11.0997 51.1 10.5997 51.9 10.3997 52.9V53L7.49973 69C7.19973 70.9 8.39973 72.7 10.2997 73C12.1997 73.3 13.9997 72.1 14.2997 70.2L16.9997 55.6C16.9997 55.6 23.6997 51 23.7997 51L19.2997 76.5L16.0997 95.1L5.29973 110.4C3.79973 112.6 4.29973 115.7 6.49973 117.3C8.69973 118.9 11.7997 118.3 13.3997 116.1L24.7997 99.9C25.2997 99.3 25.4997 98.6 25.5997 97.9L28.1997 83.3L36.8997 95.7L39.9997 114C40.4997 116.7 42.9997 118.5 45.6997 118C48.3997 117.5 50.1997 115 49.6997 112.3L46.1997 92.7C45.9997 91.9 45.6997 91.3 45.2997 90.7L35.2997 76.2L39.1997 53.6L42.2997 62C42.5997 62.9 43.1997 63.6 44.1997 64H44.2997L59.0997 70.9C60.8997 71.7 62.8997 71 63.6997 69.2C64.5997 67.6 63.7997 65.5 62.0997 64.7Z" fill="url(#paint2_linear_866_1846)"/>
</g>
<defs>
<linearGradient id="paint0_linear_866_1846" x1="74.9004" y1="13.2002" x2="74.9004" y2="114.8" gradientUnits="userSpaceOnUse">
<stop stop-color="#D31027"/>
<stop offset="1" stop-color="#EA384D"/>
</linearGradient>
<linearGradient id="paint1_linear_866_1846" x1="27.4004" y1="22.7002" x2="47.5001" y2="29.6509" gradientUnits="userSpaceOnUse">
<stop stop-color="#FD9D5D"/>
<stop offset="0.473958" stop-color="#FD2CA0"/>
<stop offset="1" stop-color="#3397FF"/>
</linearGradient>
<linearGradient id="paint2_linear_866_1846" x1="4.43945" y1="40.2158" x2="82.8311" y2="60.9445" gradientUnits="userSpaceOnUse">
<stop stop-color="#FD9D5D"/>
<stop offset="0.473958" stop-color="#FD2CA0"/>
<stop offset="1" stop-color="#3397FF"/>
</linearGradient>
<clipPath id="clip0_866_1846">
<rect width="128" height="128" fill="white"/>
</clipPath>
</defs>
</svg>
