<svg width="200" height="200" viewBox="0 0 200 200" fill="none" xmlns="http://www.w3.org/2000/svg">
<path d="M182.133 85.8583C182.85 90.4749 183.333 95.1749 183.333 99.9999C183.333 150.625 142.292 191.667 91.6667 191.667C41.0417 191.667 0 150.625 0 99.9999C0 49.3749 41.0417 8.33325 91.6667 8.33325C111.225 8.33325 129.317 14.5083 144.2 24.9416L132.35 37.0832C120.617 29.4749 106.667 24.9999 91.6667 24.9999C50.3167 24.9999 16.6667 58.6499 16.6667 99.9999C16.6667 141.35 50.3167 175 91.6667 175C132.45 175 165.658 142.267 166.583 101.708L182.133 85.8583ZM174.2 18.0583L95.8333 98.3832L63.8083 68.2666L38.0167 94.0832L95.8333 150L200 43.8583L174.2 18.0583V18.0583Z" fill="url(#paint0_linear_1014_22199)"/>
<defs>
<linearGradient id="paint0_linear_1014_22199" x1="0" y1="8.33325" x2="0" y2="191.667" gradientUnits="userSpaceOnUse">
<stop stop-color="#00B09B"/>
<stop offset="1" stop-color="#96C93D"/>
</linearGradient>
</defs>
</svg>
