<svg width="256" height="96" viewBox="0 0 256 96" fill="none" xmlns="http://www.w3.org/2000/svg">
<path d="M128.104 44.1379C130.052 44.1379 131.627 42.5949 131.627 40.6865C131.627 38.7781 130.052 37.2351 128.104 37.2351H116.518V33.0934C116.518 31.6316 115.316 30.4541 113.824 30.4541H108.228C106.964 30.4541 105.886 31.3271 105.617 32.4843H93.9896C92.1865 32.4843 90.5907 33.4792 89.7824 34.9206L84.6839 35.4891C81.9275 35.7936 79.8549 38.0878 79.8549 40.788V45.9855C78.1554 45.9245 76.4974 45.9245 74.8601 46.0058L74.5078 43.4883L71.0052 43.9349L71.3161 46.2494C71.0881 46.2697 70.8601 46.29 70.6321 46.3306L70.3212 44.0567L66.8187 44.5034L67.1295 46.7976C60.7461 47.833 54.943 49.6399 49.5337 51.3047C32.0207 56.7863 19.3575 60.7047 3.56477 34.4131L0 36.4839C10.6943 54.3094 20.6425 59.4054 30.8601 59.4054C37.3057 59.4054 43.8756 57.3751 50.7979 55.2231C56 53.5989 61.6166 51.8732 67.6891 50.8783L67.9585 52.8071L71.4611 52.3604L71.1917 50.4114C71.4197 50.3911 71.6477 50.3708 71.8756 50.3302L72.1244 52.2183L75.6269 51.7716L75.399 50.0865C76.8497 50.0256 78.3212 50.0256 79.8342 50.0865V55.02C79.8342 57.7406 81.9067 60.0144 84.6632 60.319L90.2176 60.9483C91.1088 62.0244 92.456 62.735 93.9896 62.735H105.554C105.554 64.1967 106.756 65.3743 108.249 65.3743H113.845C115.337 65.3743 116.539 64.1967 116.539 62.735V58.573H128.124C130.073 58.573 131.648 57.03 131.648 55.1215C131.648 53.2131 130.073 51.6701 128.124 51.6701H116.539V44.1379H128.104V44.1379ZM116.539 39.2857H128.124C128.912 39.2857 129.575 39.915 129.575 40.7068C129.575 41.4986 128.933 42.128 128.124 42.128H116.539V39.2857ZM84.9119 58.309C83.2124 58.1263 81.9275 56.7051 81.9275 55.02V40.8083C81.9275 39.1232 83.2124 37.7224 84.9119 37.5193L89.1813 37.0321C89.1813 37.093 89.1813 37.1336 89.1813 37.1945V58.0248C89.1813 58.2887 89.2021 58.5527 89.2435 58.7963L84.9119 58.309ZM105.554 60.7047H93.9896C92.4767 60.7047 91.2539 59.5069 91.2539 58.0248V37.1945C91.2539 35.7124 92.4767 34.5146 93.9896 34.5146H105.554V60.7047ZM114.466 62.735C114.466 63.0801 114.197 63.344 113.845 63.344H108.249C107.896 63.344 107.627 63.0801 107.627 62.735V33.0934C107.627 32.7483 107.896 32.4843 108.249 32.4843H113.845C114.197 32.4843 114.466 32.7483 114.466 33.0934V62.735ZM128.104 53.7207C128.891 53.7207 129.554 54.3501 129.554 55.1419C129.554 55.9336 128.912 56.563 128.104 56.563H116.518V53.741H128.104V53.7207Z" fill="url(#paint0_linear_909_1830)"/>
<path d="M205.119 40.2391C199.917 41.8633 194.301 43.589 188.228 44.5838L187.959 42.6551L184.456 43.1017L184.726 45.0508C184.498 45.0711 184.27 45.0914 184.042 45.132L183.793 43.2439L180.29 43.6905L180.518 45.3756C179.068 45.4365 177.596 45.4365 176.083 45.3756V40.8076C176.083 38.087 174.011 35.8132 171.254 35.5086L166.156 34.9402C165.327 33.4784 163.752 32.5039 161.948 32.5039H150.321C150.031 31.3466 148.974 30.4736 147.71 30.4736H142.114C140.622 30.4736 139.42 31.6512 139.42 33.1129V62.7545C139.42 64.2163 140.622 65.3938 142.114 65.3938H147.71C149.202 65.3938 150.404 64.2163 150.404 62.7545H161.969C163.482 62.7545 164.85 62.0642 165.741 60.9679L171.296 60.3385C174.052 60.034 176.125 57.7398 176.125 55.0396V49.4564C177.824 49.5173 179.482 49.5173 181.119 49.4361L181.472 51.9536L184.974 51.5069L184.663 49.1925C184.891 49.1722 185.119 49.1519 185.347 49.1113L185.658 51.3851L189.161 50.9385L188.85 48.6443C195.233 47.6089 201.036 45.802 206.446 44.1372C223.979 38.6961 236.643 34.7777 252.435 61.0491L256 58.9985C238.467 29.8849 223.026 34.6762 205.119 40.2391ZM148.311 62.7342C148.311 63.0793 148.042 63.3433 147.689 63.3433H142.093C141.741 63.3433 141.472 63.0793 141.472 62.7342V33.0926C141.472 32.7475 141.741 32.4836 142.093 32.4836H147.689C148.042 32.4836 148.311 32.7475 148.311 33.0926V62.7342ZM164.684 58.024C164.684 59.5061 163.461 60.7039 161.948 60.7039H150.384V34.5138H161.948C163.461 34.5138 164.684 35.7117 164.684 37.1937V58.024ZM174.011 55.0193C174.011 56.7044 172.726 58.1052 171.026 58.3083L166.695 58.7955C166.736 58.5316 166.757 58.2879 166.757 58.024V37.1937C166.757 37.1328 166.757 37.0922 166.757 37.0313L171.026 37.5186C172.726 37.7013 174.011 39.1225 174.011 40.8076V55.0193Z" fill="url(#paint1_linear_909_1830)"/>
<path d="M157.782 35.6507C157.533 35.6507 157.284 35.671 157.015 35.671C156.435 35.6913 156 36.1583 156.02 36.7267C156.041 37.2952 156.518 37.7216 157.098 37.7013C157.367 37.7013 157.616 37.681 157.865 37.681C159.481 37.6201 160.87 37.5795 161.243 38.0058C161.45 38.2494 161.658 38.9194 161.347 40.7263C161.264 41.2745 161.637 41.8024 162.196 41.8836C162.259 41.8836 162.3 41.9039 162.362 41.9039C162.86 41.9039 163.295 41.5587 163.378 41.0512C163.751 38.8585 163.564 37.5388 162.777 36.6658C161.761 35.5086 160 35.5695 157.782 35.6507Z" fill="url(#paint2_linear_909_1830)"/>
<path d="M93.9062 52.1365C93.9062 52.7049 94.3622 53.1516 94.9425 53.1516C95.5228 53.1516 95.9788 52.7049 95.9788 52.1365V41.6401C95.9788 41.0717 95.5228 40.625 94.9425 40.625C94.3622 40.625 93.9062 41.0717 93.9062 41.6401V52.1365Z" fill="url(#paint3_linear_909_1830)"/>
<path d="M99.2335 57.2939C99.8138 57.2939 100.27 56.8472 100.27 56.2788V43.6304C100.27 43.0619 99.8138 42.6152 99.2335 42.6152C98.6532 42.6152 98.1973 43.0619 98.1973 43.6304V56.2788C98.1973 56.8472 98.6532 57.2939 99.2335 57.2939Z" fill="url(#paint4_linear_909_1830)"/>
<path d="M127.669 12.6078C128.249 12.6078 128.705 12.1611 128.705 11.5927V1.01512C128.705 0.446653 128.249 0 127.669 0C127.089 0 126.633 0.446653 126.633 1.01512V11.5927C126.633 12.1611 127.089 12.6078 127.669 12.6078Z" fill="url(#paint5_linear_909_1830)"/>
<path d="M117.74 14.3537C117.885 14.78 118.279 15.0643 118.735 15.0643C118.838 15.0643 118.942 15.044 119.046 15.0237C119.584 14.8612 119.895 14.2928 119.729 13.7446L116.579 3.95884C116.413 3.43098 115.833 3.12645 115.274 3.28887C114.735 3.45128 114.424 4.01975 114.59 4.56792L117.74 14.3537Z" fill="url(#paint6_linear_909_1830)"/>
<path d="M110.362 21.3379C110.569 21.6018 110.88 21.7439 111.191 21.7439C111.419 21.7439 111.626 21.683 111.813 21.5409C112.269 21.1958 112.352 20.5664 112.02 20.1197L106.217 12.6281C105.865 12.1815 105.222 12.1003 104.766 12.4251C104.31 12.7703 104.228 13.3996 104.559 13.8463L110.362 21.3379Z" fill="url(#paint7_linear_909_1830)"/>
<path d="M112.228 74.8352C111.772 74.4901 111.13 74.5916 110.777 75.0382L104.974 82.5298C104.622 82.9765 104.726 83.6059 105.182 83.951C105.368 84.0931 105.596 84.154 105.803 84.154C106.114 84.154 106.425 84.0119 106.632 83.748L112.435 76.2564C112.767 75.8097 112.684 75.1804 112.228 74.8352Z" fill="url(#paint8_linear_909_1830)"/>
<path d="M119.584 81.108C119.046 80.9455 118.465 81.2298 118.279 81.7779L115.128 91.5637C114.963 92.0916 115.253 92.66 115.812 92.8428C115.916 92.8834 116.02 92.8834 116.123 92.8834C116.558 92.8834 116.973 92.5991 117.118 92.1728L120.268 82.387C120.434 81.8388 120.123 81.2704 119.584 81.108Z" fill="url(#paint9_linear_909_1830)"/>
<path d="M128.269 83.2197C127.688 83.2197 127.232 83.6664 127.232 84.2348V94.8124C127.232 95.3809 127.688 95.8275 128.269 95.8275C128.849 95.8275 129.305 95.3809 129.305 94.8124V84.2348C129.305 83.6664 128.828 83.2197 128.269 83.2197Z" fill="url(#paint10_linear_909_1830)"/>
<path d="M138.196 81.4735C138.031 80.9456 137.45 80.6411 136.891 80.8035C136.352 80.9659 136.041 81.5344 136.207 82.0826L139.357 91.8683C139.502 92.2947 139.896 92.5789 140.352 92.5789C140.455 92.5789 140.559 92.5586 140.663 92.5383C141.202 92.3759 141.512 91.8074 141.347 91.2593L138.196 81.4735Z" fill="url(#paint11_linear_909_1830)"/>
<path d="M145.575 74.4895C145.222 74.0428 144.58 73.9616 144.124 74.2865C143.668 74.6316 143.585 75.261 143.917 75.7076L149.72 83.1992C149.927 83.4631 150.238 83.6053 150.549 83.6053C150.777 83.6053 150.984 83.5444 151.17 83.4022C151.626 83.0571 151.709 82.4277 151.378 81.9811L145.575 74.4895Z" fill="url(#paint12_linear_909_1830)"/>
<path d="M143.711 20.993C143.897 21.1351 144.125 21.196 144.333 21.196C144.643 21.196 144.954 21.0539 145.162 20.79L150.965 13.2984C151.317 12.8517 151.213 12.2223 150.757 11.8772C150.301 11.5321 149.659 11.6336 149.307 12.0802L143.504 19.5718C143.151 20.0185 143.255 20.6478 143.711 20.993Z" fill="url(#paint13_linear_909_1830)"/>
<path d="M136.664 14.7799C137.1 14.7799 137.514 14.4956 137.659 14.0693L140.809 4.2835C140.975 3.75563 140.685 3.18717 140.125 3.00445C139.587 2.84203 139.006 3.12626 138.82 3.67443L135.669 13.4602C135.504 13.9881 135.794 14.5565 136.353 14.7392C136.457 14.7595 136.561 14.7799 136.664 14.7799Z" fill="url(#paint14_linear_909_1830)"/>
<defs>
<linearGradient id="paint0_linear_909_1830" x1="0" y1="30.4541" x2="68.5867" y2="119.87" gradientUnits="userSpaceOnUse">
<stop stop-color="#FD9D5D"/>
<stop offset="0.473958" stop-color="#FD2CA0"/>
<stop offset="1" stop-color="#3397FF"/>
</linearGradient>
<linearGradient id="paint1_linear_909_1830" x1="139.42" y1="30.4736" x2="209.706" y2="111.618" gradientUnits="userSpaceOnUse">
<stop stop-color="#FD9D5D"/>
<stop offset="0.473958" stop-color="#FD2CA0"/>
<stop offset="1" stop-color="#3397FF"/>
</linearGradient>
<linearGradient id="paint2_linear_909_1830" x1="156.02" y1="35.6123" x2="165.073" y2="39.3658" gradientUnits="userSpaceOnUse">
<stop stop-color="#FD9D5D"/>
<stop offset="0.473958" stop-color="#FD2CA0"/>
<stop offset="1" stop-color="#3397FF"/>
</linearGradient>
<linearGradient id="paint3_linear_909_1830" x1="93.9062" y1="40.625" x2="96.8117" y2="40.7912" gradientUnits="userSpaceOnUse">
<stop stop-color="#FD9D5D"/>
<stop offset="0.473958" stop-color="#FD2CA0"/>
<stop offset="1" stop-color="#3397FF"/>
</linearGradient>
<linearGradient id="paint4_linear_909_1830" x1="98.1973" y1="42.6152" x2="101.105" y2="42.7572" gradientUnits="userSpaceOnUse">
<stop stop-color="#FD9D5D"/>
<stop offset="0.473958" stop-color="#FD2CA0"/>
<stop offset="1" stop-color="#3397FF"/>
</linearGradient>
<linearGradient id="paint5_linear_909_1830" x1="126.633" y1="0" x2="129.538" y2="0.165169" gradientUnits="userSpaceOnUse">
<stop stop-color="#FD9D5D"/>
<stop offset="0.473958" stop-color="#FD2CA0"/>
<stop offset="1" stop-color="#3397FF"/>
</linearGradient>
<linearGradient id="paint6_linear_909_1830" x1="114.545" y1="3.24512" x2="121.731" y2="4.34463" gradientUnits="userSpaceOnUse">
<stop stop-color="#FD9D5D"/>
<stop offset="0.473958" stop-color="#FD2CA0"/>
<stop offset="1" stop-color="#3397FF"/>
</linearGradient>
<linearGradient id="paint7_linear_909_1830" x1="104.357" y1="12.2275" x2="114.583" y2="15.15" gradientUnits="userSpaceOnUse">
<stop stop-color="#FD9D5D"/>
<stop offset="0.473958" stop-color="#FD2CA0"/>
<stop offset="1" stop-color="#3397FF"/>
</linearGradient>
<linearGradient id="paint8_linear_909_1830" x1="104.764" y1="74.6289" x2="115.001" y2="77.5552" gradientUnits="userSpaceOnUse">
<stop stop-color="#FD9D5D"/>
<stop offset="0.473958" stop-color="#FD2CA0"/>
<stop offset="1" stop-color="#3397FF"/>
</linearGradient>
<linearGradient id="paint9_linear_909_1830" x1="115.082" y1="81.0625" x2="122.271" y2="82.1626" gradientUnits="userSpaceOnUse">
<stop stop-color="#FD9D5D"/>
<stop offset="0.473958" stop-color="#FD2CA0"/>
<stop offset="1" stop-color="#3397FF"/>
</linearGradient>
<linearGradient id="paint10_linear_909_1830" x1="127.232" y1="83.2197" x2="130.138" y2="83.3849" gradientUnits="userSpaceOnUse">
<stop stop-color="#FD9D5D"/>
<stop offset="0.473958" stop-color="#FD2CA0"/>
<stop offset="1" stop-color="#3397FF"/>
</linearGradient>
<linearGradient id="paint11_linear_909_1830" x1="136.162" y1="80.7598" x2="143.349" y2="81.8593" gradientUnits="userSpaceOnUse">
<stop stop-color="#FD9D5D"/>
<stop offset="0.473958" stop-color="#FD2CA0"/>
<stop offset="1" stop-color="#3397FF"/>
</linearGradient>
<linearGradient id="paint12_linear_909_1830" x1="143.715" y1="74.0889" x2="153.941" y2="77.0113" gradientUnits="userSpaceOnUse">
<stop stop-color="#FD9D5D"/>
<stop offset="0.473958" stop-color="#FD2CA0"/>
<stop offset="1" stop-color="#3397FF"/>
</linearGradient>
<linearGradient id="paint13_linear_909_1830" x1="143.293" y1="11.6709" x2="153.54" y2="14.6033" gradientUnits="userSpaceOnUse">
<stop stop-color="#FD9D5D"/>
<stop offset="0.473958" stop-color="#FD2CA0"/>
<stop offset="1" stop-color="#3397FF"/>
</linearGradient>
<linearGradient id="paint14_linear_909_1830" x1="135.623" y1="2.95898" x2="142.814" y2="4.05979" gradientUnits="userSpaceOnUse">
<stop stop-color="#FD9D5D"/>
<stop offset="0.473958" stop-color="#FD2CA0"/>
<stop offset="1" stop-color="#3397FF"/>
</linearGradient>
</defs>
</svg>
