<svg width="200" height="200" viewBox="0 0 200 200" fill="none" xmlns="http://www.w3.org/2000/svg">
<path d="M100 24.6667L111.333 37.0333L126.267 29.2417L132.633 44.6833L149.283 42.4L149.9 59.0167L166.3 62.475L161.133 78.225L175.308 86.975L165 100L175.308 113.025L161.133 121.775L166.3 137.525L149.9 140.983L149.283 157.6L132.633 155.317L126.267 170.767L111.333 162.975L100 175.333L88.6667 162.967L73.7333 170.758L67.3667 155.308L50.7167 157.592L50.1 140.975L33.7 137.517L38.8667 121.767L24.6917 113.017L35 100L24.6917 86.975L38.8667 78.225L33.7 62.475L50.1 59.0167L50.7167 42.4L67.3667 44.6833L73.7333 29.25L88.6667 37.0417L100 24.6667V24.6667ZM100 0L85.025 16.3417L65.275 6.03333L56.8667 26.425L34.7417 23.4L33.925 45.4L12.0583 50L18.9333 70.9417L0 82.6333L13.7417 100L0 117.367L18.9333 129.058L12.0583 150L33.925 154.608L34.7417 176.608L56.8667 173.575L65.275 193.975L85.025 183.667L100 200L114.975 183.667L134.725 193.975L143.133 173.575L165.258 176.608L166.075 154.608L187.942 150L181.067 129.058L200 117.367L186.258 100L200 82.6333L181.067 70.9417L187.942 50L166.075 45.3917L165.258 23.3917L143.133 26.425L134.725 6.025L114.975 16.3333L100 0ZM125.683 121.908C122.867 121.692 123.125 119.083 125.792 118.6C130.192 117.783 132.133 115.425 132.133 113.242C132.133 111.4 130.758 109.692 128.325 109.133C125.417 108.475 126.025 106.508 128.433 106.317C132.375 106 134.292 103.667 134.292 101.425C134.292 99.4667 132.817 97.575 129.925 97.1833C126.95 96.7917 127.917 94.6333 130.033 93.9833C131.85 93.4333 134.733 92.25 134.733 88.7417C134.733 86.4083 132.992 83.3167 126.85 83.5667C122.575 83.7417 114.117 82.8833 109.558 80.4917C112.692 67.7917 111.942 50 103.683 50C98.15 50 97.1 56.275 95.4417 62.0417C89.475 82.7667 78.9333 86.5667 66.6667 88.4417V122.917C89.8917 122.917 94.7917 133.333 112.167 133.333C123.275 133.333 129.008 127.308 129.008 124.075C129.008 122.917 128.067 122.092 125.683 121.908V121.908Z" fill="url(#paint0_linear_926_12926)"/>
<defs>
<linearGradient id="paint0_linear_926_12926" x1="0" y1="0" x2="251.247" y2="86.8835" gradientUnits="userSpaceOnUse">
<stop stop-color="#FD9D5D"/>
<stop offset="0.473958" stop-color="#FD2CA0"/>
<stop offset="1" stop-color="#3397FF"/>
</linearGradient>
</defs>
</svg>
