<svg width="128" height="128" viewBox="0 0 128 128" fill="none" xmlns="http://www.w3.org/2000/svg">
<path d="M94.3371 53.677C94.3371 52.032 95.6704 50.6987 97.3154 50.6987H103.253C104.898 50.6987 106.232 52.032 106.232 53.677C106.232 55.322 104.898 56.6553 103.253 56.6553H97.3154C95.6704 56.6553 94.3371 55.322 94.3371 53.677ZM104.521 73.9176C104.521 75.5626 105.854 76.8959 107.499 76.8959H115.491C115.509 76.8962 115.528 76.8962 115.546 76.8962C117.191 76.8962 118.524 75.563 118.524 73.918V43.446C118.524 41.801 117.191 40.4677 115.546 40.4677C113.901 40.4677 112.567 41.801 112.567 43.446V70.9394H107.499C105.854 70.9394 104.521 72.2726 104.521 73.9176ZM103.668 46.8574C104.254 47.4779 105.043 47.7913 105.835 47.7913C106.568 47.7913 107.303 47.5219 107.879 46.9785C109.075 45.8491 109.129 43.9645 107.999 42.7683L106.709 41.4016C105.58 40.206 103.696 40.1514 102.499 41.2805C101.303 42.4095 101.249 44.2945 102.378 45.4907L103.668 46.8574ZM57.9513 33.0247C64.799 33.0247 70.37 38.5957 70.37 45.4434C70.37 52.2911 64.799 57.8621 57.9513 57.8621C51.1039 57.8621 45.5329 52.2911 45.5329 45.4434C45.5329 38.5957 51.1039 33.0247 57.9513 33.0247ZM57.9513 38.9812C54.388 38.9812 51.4895 41.8801 51.4895 45.4434C51.4895 49.0067 54.3883 51.9056 57.9513 51.9056C61.5143 51.9056 64.4135 49.0067 64.4135 45.4434C64.4138 41.8804 61.5146 38.9812 57.9513 38.9812ZM107.999 64.5857C109.129 63.3898 109.075 61.5049 107.879 60.3754C106.683 59.2457 104.798 59.3006 103.668 60.4959L102.378 61.8623C101.249 63.0582 101.303 64.9431 102.499 66.0725C103.074 66.6162 103.809 66.8856 104.543 66.8856C105.334 66.8856 106.123 66.5726 106.709 65.9521L107.999 64.5857ZM35.514 49.6567C34.0795 49.9456 32.6043 50.0922 31.129 50.0922C18.9605 50.0922 9.06038 40.1924 9.06038 28.0238C9.06005 15.856 18.9601 5.95654 31.129 5.95654C41.3968 5.95654 50.458 13.2205 52.6741 23.2288C53.0299 24.8348 54.6209 25.8481 56.2259 25.4927C57.8318 25.1369 58.8454 23.5468 58.4897 21.9409C57.132 15.8113 53.6868 10.2433 48.7882 6.26363C43.8168 2.22444 37.5452 0 31.129 0C15.6758 0 3.10352 12.5716 3.10352 28.0242C3.10352 43.4771 15.6754 56.049 31.1287 56.049C32.9981 56.049 34.8694 55.863 36.6901 55.4964C38.3027 55.1718 39.3464 53.6009 39.0218 51.9886C38.6968 50.3758 37.1269 49.3334 35.514 49.6567ZM83.5353 122.043H78.4673V94.5491C78.4673 92.9084 77.1403 91.5768 75.4996 91.5708L58.3616 91.5093V69.7305L79.369 76.7433C80.9293 77.2636 82.6163 76.4214 83.1372 74.8611C83.6577 73.3011 82.8152 71.6138 81.2549 71.0929L56.4231 62.8037C56.1081 62.6863 55.7676 62.6207 55.4118 62.6174C55.3652 62.6164 55.3222 62.6174 55.2775 62.6191C55.2755 62.6191 55.2732 62.6191 55.2709 62.6194C54.6117 62.6439 54.0068 62.8825 53.5246 63.2683C53.2006 63.5265 52.9276 63.8541 52.7314 64.2386C52.6215 64.4527 52.5368 64.682 52.4812 64.9226C52.4213 65.1787 52.3968 65.4365 52.4051 65.69V94.4664C52.4035 94.8942 52.4925 95.3013 52.6536 95.6696C52.6546 95.6722 52.6559 95.6752 52.6573 95.6779C52.6586 95.6805 52.6596 95.6835 52.6609 95.6858C52.6609 95.6861 52.6612 95.6861 52.6612 95.6865C52.6626 95.6891 52.6636 95.6914 52.6645 95.6937C52.6649 95.6941 52.6649 95.6944 52.6652 95.6947C52.6662 95.697 52.6672 95.6997 52.6685 95.7017C52.6688 95.7023 52.6692 95.703 52.6695 95.7037C52.6702 95.7056 52.6712 95.708 52.6722 95.71C52.6725 95.7106 52.6728 95.7113 52.6732 95.7119C52.6741 95.7139 52.6751 95.7159 52.6761 95.7179C52.6765 95.7189 52.6768 95.7195 52.6771 95.7205C52.6781 95.7222 52.6791 95.7242 52.6798 95.7262C52.6804 95.7272 52.6808 95.7281 52.6814 95.7291C52.6821 95.7308 52.6831 95.7325 52.6837 95.7341C52.6844 95.7351 52.6847 95.7364 52.6854 95.7377C52.6861 95.7391 52.687 95.7407 52.6877 95.742C52.6884 95.7434 52.6887 95.7447 52.6894 95.746C52.6904 95.7474 52.6907 95.7487 52.6917 95.7503C52.6923 95.7516 52.693 95.7533 52.6937 95.755C52.6943 95.7563 52.695 95.7573 52.6953 95.7586C52.6963 95.7603 52.6973 95.7619 52.698 95.7636C52.6983 95.7646 52.699 95.7655 52.6993 95.7665C52.7003 95.7682 52.7013 95.7702 52.7023 95.7722C52.7026 95.7728 52.7029 95.7735 52.7033 95.7745C52.7043 95.7765 52.7056 95.7785 52.7066 95.7808C52.7069 95.7811 52.7072 95.7821 52.7072 95.7824C52.7086 95.7847 52.7096 95.7867 52.7105 95.789C52.7109 95.7894 52.7112 95.79 52.7115 95.7907C52.7125 95.793 52.7139 95.7953 52.7148 95.7976C52.7152 95.798 52.7152 95.7983 52.7155 95.7986C52.7168 95.801 52.7178 95.8033 52.7191 95.8056C52.7191 95.8059 52.7195 95.8062 52.7195 95.8066C52.7208 95.8089 52.7221 95.8115 52.7235 95.8139C52.7235 95.8139 52.7238 95.8142 52.7238 95.8145C52.7251 95.8168 52.7264 95.8195 52.7274 95.8218C52.7278 95.8218 52.7278 95.8221 52.7278 95.8225C52.8231 96.0098 52.9376 96.1861 53.0686 96.348L53.0689 96.3483C53.0706 96.3503 53.0726 96.3526 53.0742 96.3549L53.0746 96.3552C53.0762 96.3572 53.0779 96.3592 53.0795 96.3612C53.0799 96.3615 53.0802 96.3619 53.0805 96.3622C53.0822 96.3642 53.0842 96.3665 53.0858 96.3685L53.0861 96.3688C53.0878 96.3708 53.0894 96.3728 53.0911 96.3748C53.0914 96.3751 53.0918 96.3754 53.0921 96.3758C53.0937 96.3777 53.0954 96.3794 53.0971 96.3814C53.0974 96.3817 53.0977 96.382 53.0981 96.3827C53.0994 96.3844 53.101 96.386 53.1024 96.388C53.103 96.3887 53.1033 96.389 53.104 96.3897C53.1057 96.3913 53.107 96.393 53.1083 96.3946C53.109 96.3953 53.1093 96.3956 53.11 96.3963C53.1113 96.3979 53.1126 96.3996 53.1139 96.4012C53.1146 96.4019 53.1153 96.4026 53.1159 96.4032C53.1172 96.4046 53.1186 96.4062 53.1199 96.4079C53.1206 96.4085 53.1212 96.4092 53.1219 96.4102C53.1232 96.4115 53.1242 96.4128 53.1255 96.4145C53.1262 96.4155 53.1272 96.4161 53.1278 96.4171C53.1292 96.4184 53.1302 96.4198 53.1315 96.4211C53.1321 96.4221 53.1331 96.4231 53.1338 96.4237C53.1351 96.4251 53.1361 96.4264 53.1374 96.4277C53.1381 96.4287 53.1391 96.4297 53.1401 96.4307C53.1411 96.4317 53.1421 96.433 53.1431 96.434C53.1441 96.435 53.145 96.4363 53.146 96.4373C53.147 96.4383 53.1477 96.4393 53.1487 96.4403C53.15 96.4416 53.151 96.4429 53.1523 96.4443C53.153 96.4449 53.1536 96.4459 53.1546 96.4469C53.1556 96.4482 53.157 96.4496 53.1583 96.4509C53.1589 96.4519 53.1596 96.4525 53.1603 96.4532C53.1619 96.4549 53.1629 96.4562 53.1646 96.4578C53.1649 96.4585 53.1656 96.4588 53.1662 96.4595C53.1675 96.4611 53.1692 96.4628 53.1705 96.4644C53.1712 96.4648 53.1715 96.4654 53.1722 96.4661C53.1735 96.4678 53.1752 96.4694 53.1768 96.4714C53.1771 96.4717 53.1775 96.4721 53.1778 96.4724C53.1795 96.474 53.1811 96.476 53.1828 96.4777C53.1834 96.4783 53.1838 96.4787 53.1841 96.479C53.1857 96.4807 53.1874 96.4826 53.1891 96.4843C53.1894 96.4846 53.1897 96.4846 53.1897 96.485C53.1917 96.4869 53.1934 96.4889 53.1953 96.4909C53.1957 96.4909 53.1957 96.4913 53.196 96.4916C53.1977 96.4936 53.2 96.4956 53.2016 96.4975C53.2036 96.4995 53.2059 96.5018 53.2079 96.5042C53.7493 97.0856 54.5207 97.4502 55.3778 97.4536L72.5157 97.5151V124.943C72.515 124.968 72.5147 124.994 72.5147 125.019C72.5147 126.044 73.0323 126.948 73.8208 127.484C74.2974 127.808 74.8738 127.998 75.494 127.998C75.5148 127.998 75.5363 127.998 75.5572 127.997H83.5403C85.1853 127.997 86.5185 126.664 86.5185 125.019C86.5185 123.374 85.1803 122.043 83.5353 122.043ZM121.916 80.5535C121.895 80.5535 121.874 80.5535 121.853 80.5542H79.3416C77.6966 80.5542 76.3633 81.8875 76.3633 83.5325C76.3633 85.1775 77.6966 86.5107 79.3416 86.5107H118.938V122.042H108.663C107.018 122.042 105.685 123.375 105.685 125.02C105.685 126.665 107.018 127.999 108.663 127.999H121.916C123.561 127.999 124.895 126.665 124.895 125.02C124.895 124.836 124.878 124.657 124.846 124.482C124.878 124.307 124.895 124.128 124.895 123.944V83.5325C124.895 83.5325 124.895 83.5325 124.895 83.5318C124.895 81.8871 123.561 80.5535 121.916 80.5535ZM63.8228 102.21H47.1256V74.9733C47.1256 73.3283 45.7924 71.995 44.1474 71.995C42.5024 71.995 41.1691 73.3283 41.1691 74.9733V105.1C41.1681 105.13 41.1678 105.159 41.1678 105.188V125.021C41.1678 126.666 42.501 127.999 44.146 127.999C45.791 127.999 47.1243 126.666 47.1243 125.021V108.167H60.8445V125.021C60.8445 126.666 62.1778 127.999 63.8228 127.999C65.4678 127.999 66.8011 126.666 66.8011 125.021V105.188C66.8011 103.543 65.4675 102.21 63.8228 102.21ZM42.4071 39.3029C41.2432 40.4661 39.358 40.4657 38.1948 39.3029L35.7811 36.8892C35.2493 37.1694 34.6897 37.4031 34.107 37.5851V40.9969C34.107 42.6418 32.7737 43.9751 31.1287 43.9751C29.4837 43.9751 28.1504 42.6418 28.1504 40.9969V37.5854C27.5673 37.4034 27.0071 37.1694 26.475 36.8892L24.0623 39.3029C22.8991 40.4661 21.0138 40.4667 19.85 39.3035C18.6868 38.1407 18.6865 36.2548 19.8493 35.0916L22.2627 32.6772C21.9824 32.1454 21.7485 31.5855 21.5665 31.0024H18.1567C16.5117 31.0024 15.1784 29.6692 15.1784 28.0242C15.1784 26.3792 16.5117 25.0459 18.1567 25.0459H21.5678C21.7498 24.4632 21.9834 23.9029 22.264 23.3711L19.8506 20.9577C18.6875 19.7946 18.6875 17.909 19.851 16.7458C21.0142 15.583 22.8997 15.5826 24.0629 16.7458L26.4766 19.1599C27.0084 18.8796 27.5687 18.6459 28.1514 18.4639V15.0522C28.1514 13.4072 29.4847 12.0739 31.1297 12.0739C32.7747 12.0739 34.108 13.4072 34.108 15.0522V18.4639C34.6904 18.6459 35.25 18.8792 35.7817 19.1595L38.1961 16.7455C39.3593 15.5826 41.2449 15.5823 42.4081 16.7455C43.5712 17.9087 43.5712 19.7942 42.4077 20.9574L39.9943 23.3708C40.2746 23.9026 40.5086 24.4625 40.6906 25.0456H44.1014C45.7464 25.0456 47.0796 26.3788 47.0796 28.0238C47.0796 29.6688 45.7464 31.0021 44.1014 31.0021H40.6906C40.5086 31.5849 40.2746 32.1451 39.9943 32.6769L42.4081 35.0906C43.5702 36.2541 43.5702 38.1397 42.4071 39.3029ZM35.1851 28.0242C35.1851 25.7878 33.3657 23.9684 31.129 23.9684C28.8917 23.9684 27.0716 25.7878 27.0716 28.0242C27.0716 30.2609 28.8917 32.0806 31.129 32.0806C33.3657 32.0806 35.1851 30.2609 35.1851 28.0242Z" fill="url(#paint0_linear_866_1828)"/>
<defs>
<linearGradient id="paint0_linear_866_1828" x1="3.10352" y1="0" x2="157.664" y2="50.8561" gradientUnits="userSpaceOnUse">
<stop stop-color="#FD9D5D"/>
<stop offset="0.473958" stop-color="#FD2CA0"/>
<stop offset="1" stop-color="#3397FF"/>
</linearGradient>
</defs>
</svg>
